HIERARCHY
ROOT hip
{
  OFFSET 0 0 0
  CHANNELS 6 Xposition Yposition Zposition Zrotation Yrotation Xrotation
  JOINT abdomen
  {
    OFFSET 0 20.6881 -0.73152
    CHANNELS 3 Zrotation Xrotation Yrotation
    JOINT chest
    {
      OFFSET 0 11.7043 -0.48768
      CHANNELS 3 Zrotation Xrotation Yrotation
      JOINT neck
      {
        OFFSET 0 22.1894 -2.19456
        CHANNELS 3 Zrotation Xrotation Yrotation
        JOINT head
        {
          OFFSET -0.24384 7.07133 1.2192
          CHANNELS 3 Zrotation Xrotation Yrotation
          JOINT leftEye
          {
            OFFSET 4.14528 8.04674 8.04672
            CHANNELS 3 Zrotation Xrotation Yrotation
            End Site
            {
              OFFSET 1 0 0
            }
          }
          JOINT rightEye
          {
            OFFSET -3.6576 8.04674 8.04672
            CHANNELS 3 Zrotation Xrotation Yrotation
            End Site
            {
              OFFSET 1 0 0
            }
          }
        }
      }
      JOINT rCollar
      {
        OFFSET -2.68224 19.2634 -4.8768
        CHANNELS 3 Zrotation Xrotation Yrotation
        JOINT rShldr
        {
          OFFSET -8.77824 -1.95073 1.46304
          CHANNELS 3 Zrotation Xrotation Yrotation
          JOINT rForeArm
          {
            OFFSET -28.1742 -1.7115 0.48768
            CHANNELS 3 Zrotation Xrotation Yrotation
            JOINT rHand
            {
              OFFSET -22.5879 0.773209 7.07136
              CHANNELS 3 Zrotation Xrotation Yrotation
              JOINT rThumb1
              {
                OFFSET -1.2192 -0.487915 3.41376
                CHANNELS 3 Zrotation Xrotation Yrotation
                JOINT rThumb2
                {
                  OFFSET -3.37035 -0.52449 3.41376
                  CHANNELS 3 Zrotation Xrotation Yrotation
                  End Site
                  {
                    OFFSET -1.78271 -1.18214 1.43049
                  }
                }
              }
              JOINT rIndex1
              {
                OFFSET -7.75947 0.938293 5.60832
                CHANNELS 3 Zrotation Xrotation Yrotation
                JOINT rIndex2
                {
                  OFFSET -2.54057 -0.884171 1.56538
                  CHANNELS 3 Zrotation Xrotation Yrotation
                  End Site
                  {
                    OFFSET -1.62519 -0.234802 1.16502
                  }
                }
              }
              JOINT rMid1
              {
                OFFSET -8.24714 1.18213 3.41376
                CHANNELS 3 Zrotation Xrotation Yrotation
                JOINT rMid2
                {
                  OFFSET -3.10165 -0.590103 1.0647
                  CHANNELS 3 Zrotation Xrotation Yrotation
                  End Site
                  {
                    OFFSET -2.48547 -0.328903 0.83742
                  }
                }
              }
              JOINT rRing1
              {
                OFFSET -8.82822 0.546677 1.51678
                CHANNELS 3 Zrotation Xrotation Yrotation
                JOINT rRing2
                {
                  OFFSET -2.60934 -0.819778 -0.0198488
                  CHANNELS 3 Zrotation Xrotation Yrotation
                  End Site
                  {
                    OFFSET -2.33842 -0.294052 0.168128
                  }
                }
              }
              JOINT rPinky1
              {
                OFFSET -8.27202 -0.0477905 -0.4584
                CHANNELS 3 Zrotation Xrotation Yrotation
                JOINT rPinky2
                {
                  OFFSET -1.82734 -0.647385 -0.700984
                  CHANNELS 3 Zrotation Xrotation Yrotation
                  End Site
                  {
                    OFFSET -1.69225 -0.51767 -0.607171
                  }
                }
              }
            }
          }
        }
      }
      JOINT lCollar
      {
        OFFSET 2.68224 19.2634 -4.8768
        CHANNELS 3 Zrotation Xrotation Yrotation
        JOINT lShldr
        {
          OFFSET 8.77824 -1.95073 1.46304
          CHANNELS 3 Zrotation Xrotation Yrotation
          JOINT lForeArm
          {
            OFFSET 28.1742 -1.7115 0.48768
            CHANNELS 3 Zrotation Xrotation Yrotation
            JOINT lHand
            {
              OFFSET 22.5879 0.773209 7.07136
              CHANNELS 3 Zrotation Xrotation Yrotation
              JOINT lThumb1
              {
                OFFSET 1.2192 -0.487915 3.41376
                CHANNELS 3 Zrotation Xrotation Yrotation
                JOINT lThumb2
                {
                  OFFSET 3.37035 -0.52449 3.41376
                  CHANNELS 3 Zrotation Xrotation Yrotation
                  End Site
                  {
                    OFFSET 1.78271 -1.18214 1.43049
                  }
                }
              }
              JOINT lIndex1
              {
                OFFSET 7.75947 0.938293 5.60832
                CHANNELS 3 Zrotation Xrotation Yrotation
                JOINT lIndex2
                {
                  OFFSET 2.54057 -0.884171 1.56538
                  CHANNELS 3 Zrotation Xrotation Yrotation
                  End Site
                  {
                    OFFSET 1.62519 -0.234802 1.16502
                  }
                }
              }
              JOINT lMid1
              {
                OFFSET 8.24714 1.18213 3.41376
                CHANNELS 3 Zrotation Xrotation Yrotation
                JOINT lMid2
                {
                  OFFSET 3.10165 -0.590103 1.0647
                  CHANNELS 3 Zrotation Xrotation Yrotation
                  End Site
                  {
                    OFFSET 2.48547 -0.328903 0.83742
                  }
                }
              }
              JOINT lRing1
              {
                OFFSET 8.82822 0.546677 1.51678
                CHANNELS 3 Zrotation Xrotation Yrotation
                JOINT lRing2
                {
                  OFFSET 2.60934 -0.819778 -0.0198488
                  CHANNELS 3 Zrotation Xrotation Yrotation
                  End Site
                  {
                    OFFSET 2.33842 -0.294052 0.168128
                  }
                }
              }
              JOINT lPinky1
              {
                OFFSET 8.27202 -0.0477905 -0.4584
                CHANNELS 3 Zrotation Xrotation Yrotation
                JOINT lPinky2
                {
                  OFFSET 1.82734 -0.647385 -0.700984
                  CHANNELS 3 Zrotation Xrotation Yrotation
                  End Site
                  {
                    OFFSET 1.69225 -0.51767 -0.607171
                  }
                }
              }
            }
          }
        }
      }
    }
  }
  JOINT rButtock
  {
    OFFSET -8.77824 4.35084 1.2192
    CHANNELS 3 Zrotation Xrotation Yrotation
    JOINT rThigh
    {
      OFFSET 0 -1.70687 -2.19456
      CHANNELS 3 Zrotation Xrotation Yrotation
      JOINT rShin
      {
        OFFSET 0 -36.8199 0.73152
        CHANNELS 3 Zrotation Xrotation Yrotation
        JOINT rFoot
        {
          OFFSET 0.73152 -45.1104 -5.12064
          CHANNELS 3 Zrotation Xrotation Yrotation
          End Site
          {
            OFFSET -1.1221 -3.69964 12.103
          }
        }
      }
    }
  }
  JOINT lButtock
  {
    OFFSET 8.77824 4.35084 1.2192
    CHANNELS 3 Zrotation Xrotation Yrotation
    JOINT lThigh
    {
      OFFSET 0 -1.70687 -2.19456
      CHANNELS 3 Zrotation Xrotation Yrotation
      JOINT lShin
      {
        OFFSET 0 -36.8199 0.73152
        CHANNELS 3 Zrotation Xrotation Yrotation
        JOINT lFoot
        {
          OFFSET -0.73152 -45.1104 -5.12064
          CHANNELS 3 Zrotation Xrotation Yrotation
          End Site
          {
            OFFSET 1.1221 -3.69964 12.103
          }
        }
      }
    }
  }
}
MOTION
Frames:	5
Frame Time:	0.00833333
30.8467 85.1731 19.2555 0.0 0.0 0.0 0.512927 -0.00341806 0.014693 0.141685 -0.00540185 0.0245501 -1.1334e-14 0.0 1.30452e-16 -3.37561e-14 3.18055e-15 3.7738e-16 -0.0 0.0 0.0 -0.0 0.0 0.0 -5.56752e-15 -6.60027e-18 2.48481e-16 -1.16147e-13 -3.78933e-16 1.78906e-15 -2.03595e-12 6.00131e-13 5.08889e-14 -2.32813e-11 -6.45777e-13 2.19458e-13 -5.49262e-11 -9.80884e-14 6.07486e-13 -9.48632e-11 -1.62208e-13 1.05117e-12 -5.49234e-11 -9.70069e-14 6.04305e-13 7.73091 5.47488 0.417314 -5.49262e-11 -9.80008e-14 6.13847e-13 2.90554 0.965183 0.102902 -5.49243e-11 -9.83984e-14 6.10667e-13 10.2786 0.731801 0.0259123 -5.49306e-11 -9.58142e-14 6.20208e-13 2.22167 -0.733487 -0.20892 -5.76358e-15 -6.60027e-18 -1.49089e-16 -1.19682e-13 -3.97569e-16 0.0 -2.03501e-12 -6.17425e-13 5.40694e-14 -2.32913e-11 5.65766e-13 2.35361e-13 -5.49386e-11 -1.10744e-13 6.10667e-13 -9.4874e-11 -1.94014e-13 1.0631e-12 -5.49417e-11 -1.11319e-13 6.20208e-13 -7.73091 5.47488 -0.417314 -5.49392e-11 -1.10723e-13 6.10667e-13 -2.90554 0.965183 -0.102902 -5.49438e-11 -1.11021e-13 6.10667e-13 -10.2786 0.731801 -0.0259123 -5.49312e-11 -1.06946e-13 5.97944e-13 -2.22167 -0.733487 0.20892 -2.03217e-16 0.0 -3.88251e-19 0.860105 -4.41145 -0.072974 -0.00213193 2.43939 -0.0112594 -0.474543 1.97259 0.0938511 2.03217e-16 0.0 3.88251e-19 -0.0775954 -2.42096 0.0232524 0.00766711 -1.16602 0.0659935 0.46568 3.58744 -0.125202
26.386 84.6009 6.19765 -179.167 -27.6957 176.968 0.0371562 2.62264 0.805967 -0.134636 0.378746 0.212492 1.81868 3.05813 0.690565 -0.938652 -6.54536 1.00766 -0.0 0.0 0.0 -0.0 0.0 0.0 4.11424e-16 -3.34384e-14 9.59225e-14 21.9057 9.57405 0.528142 -4.86486 -2.35591 7.43411 0.0426946 -4.58705 -0.637233 -3.96997e-10 -2.59944e-10 5.4149e-10 -6.93749e-10 -4.42996e-10 9.33043e-10 -3.96994e-10 -2.59944e-10 5.41483e-10 7.73091 5.47488 0.417314 -3.96998e-10 -2.59944e-10 5.41492e-10 2.90554 0.965183 0.102902 -3.96993e-10 -2.59945e-10 5.4149e-10 10.2786 0.731801 0.0259123 -3.97e-10 -2.59943e-10 5.41497e-10 2.22167 -0.733487 -0.20892 2.54054e-16 -3.34374e-14 9.55634e-14 -21.432 7.35754 0.971401 5.35378 -2.71111 -8.03757 -4.42163e-05 -0.189865 0.0266839 -5.36896e-10 -1.32021e-09 4.31411e-10 -9.29034e-10 -2.28691e-09 7.47963e-10 -5.36898e-10 -1.32021e-09 4.3142e-10 -7.73091 5.47488 -0.417314 -5.36896e-10 -1.32021e-09 4.31412e-10 -2.90554 0.965183 -0.102902 -5.36901e-10 -1.32021e-09 4.31414e-10 -10.2786 0.731801 -0.0259123 -5.36889e-10 -1.3202e-09 4.31406e-10 -2.22167 -0.733487 0.20892 -2.03217e-16 0.0 -3.88251e-19 1.76635 -4.99254 4.59498 0.0463796 7.82058 0.179352 -1.98529 -5.17676 -9.55481 2.03217e-16 0.0 3.88251e-19 0.107567 -2.90795 -5.01645 -0.0186783 4.50542 -0.0877931 1.24397 -1.51449 7.40073
26.3772 84.6031 6.19848 -179.218 -27.6911 176.975 -0.542287 5.39738 1.6478 -0.430805 0.785629 0.411212 3.65545 6.29048 1.42724 -1.661 -13.4622 2.12078 -0.0 0.0 0.0 -0.0 0.0 0.0 7.7824e-15 -7.20633e-14 2.04515e-13 44.8592 19.6868 1.12394 -9.35868 -4.72183 15.3481 -0.0245621 -9.44519 -1.32613 -7.89703e-10 -5.46085e-10 1.14185e-09 -1.38108e-09 -9.30486e-10 1.96741e-09 -7.897e-10 -5.46085e-10 1.14184e-09 7.73091 5.47488 0.417314 -7.89705e-10 -5.46085e-10 1.14185e-09 2.90554 0.965183 0.102902 -7.89698e-10 -5.46085e-10 1.14185e-09 10.2786 0.731801 0.0259123 -7.89706e-10 -5.46084e-10 1.14185e-09 2.22167 -0.733487 -0.20892 7.66739e-15 -7.20614e-14 2.04195e-13 -44.3734 15.1079 2.04491 10.191 -5.39606 -16.5859 0.000117977 -0.376797 0.0529568 -1.08305e-09 -2.79221e-09 9.25958e-10 -1.87428e-09 -4.83678e-09 1.60534e-09 -1.08306e-09 -2.79221e-09 9.25967e-10 -7.73091 5.47488 -0.417314 -1.08305e-09 -2.79221e-09 9.2596e-10 -2.90554 0.965183 -0.102902 -1.08306e-09 -2.79221e-09 9.25964e-10 -10.2786 0.731801 -0.0259123 -1.08305e-09 -2.79221e-09 9.25961e-10 -2.22167 -0.733487 0.20892 -2.03217e-16 0.0 -3.88251e-19 2.82775 -5.56192 9.53832 0.0576226 13.5093 0.388339 -6.20214 -12.1291 -20.141 2.03217e-16 0.0 3.88251e-19 0.211849 -3.39232 -10.3476 -0.0129641 10.5014 -0.253957 3.51247 -6.68264 15.4532
26.4133 84.6022 6.17503 -178.99 -27.6631 176.848 -1.13368 7.86865 2.40867 -0.694839 1.14699 0.588479 5.23251 9.16901 2.09553 -2.08947 -19.611 3.1884 -0.0 0.0 0.0 -0.0 0.0 0.0 1.23693e-14 -1.00302e-13 2.87271e-13 65.1246 28.7117 1.78145 -12.8018 -6.59284 22.4398 -0.185642 -13.7542 -1.96185 -1.08114e-09 -7.79637e-10 1.62325e-09 -1.89152e-09 -1.32866e-09 2.79703e-09 -1.08113e-09 -7.79637e-10 1.62324e-09 7.73091 5.47488 0.417314 -1.08114e-09 -7.79637e-10 1.62325e-09 2.90554 0.965183 0.102902 -1.08113e-09 -7.79637e-10 1.62325e-09 10.2786 0.731801 0.0259123 -1.08114e-09 -7.79637e-10 1.62325e-09 2.22167 -0.733487 -0.20892 1.22893e-14 -1.00299e-13 2.86988e-13 -65.0942 22.0462 3.11842 13.838 -7.49446 -24.3064 0.000397919 -0.569595 0.0800551 -1.50081e-09 -3.9604e-09 1.29301e-09 -2.59735e-09 -6.86034e-09 2.24176e-09 -1.50081e-09 -3.9604e-09 1.29302e-09 -7.73091 5.47488 -0.417314 -1.50081e-09 -3.9604e-09 1.29301e-09 -2.90554 0.965183 -0.102902 -1.50082e-09 -3.9604e-09 1.29302e-09 -10.2786 0.731801 -0.0259123 -1.50081e-09 -3.9604e-09 1.29302e-09 -2.22167 -0.733487 0.20892 -2.03217e-16 0.0 -3.88251e-19 3.85868 -6.021 13.9566 0.0307982 18.5822 0.586107 -12.1657 -17.1864 -30.2128 2.03217e-16 0.0 3.88251e-19 0.225379 -3.78045 -15.11 0.0226253 15.848 -0.410114 6.76914 -10.8547 22.8762
26.4349 84.5982 6.1603 -178.855 -27.6692 176.801 -1.59963 9.58702 2.948 -0.873174 1.39459 0.712011 6.31908 11.1681 2.5701 -2.31298 -23.8642 3.98362 -0.0 0.0 0.0 -0.0 0.0 0.0 9.99601e-15 -1.02575e-13 3.05433e-13 79.0788 35.0252 2.422 -14.8802 -7.68698 27.3423 -0.35462 -16.6972 -2.41613 -1.11939e-09 -8.81717e-10 1.80728e-09 -1.95972e-09 -1.50357e-09 3.11475e-09 -1.11939e-09 -8.81717e-10 1.80726e-09 7.73091 5.47488 0.417314 -1.1194e-09 -8.81717e-10 1.80727e-09 2.90554 0.965183 0.102902 -1.11939e-09 -8.81716e-10 1.80727e-09 10.2786 0.731801 0.0259123 -1.11939e-09 -8.81716e-10 1.80727e-09 2.22167 -0.733487 -0.20892 9.93278e-15 -1.02571e-13 3.05184e-13 -79.6998 26.9781 4.00572 16.0477 -8.73162 -29.7735 0.000740626 -0.777063 0.109216 -1.59756e-09 -4.36903e-09 1.34133e-09 -2.765e-09 -7.56812e-09 2.32578e-09 -1.59756e-09 -4.36903e-09 1.34134e-09 -7.73091 5.47488 -0.417314 -1.59756e-09 -4.36904e-09 1.34134e-09 -2.90554 0.965183 -0.102902 -1.59756e-09 -4.36904e-09 1.34134e-09 -10.2786 0.731801 -0.0259123 -1.59755e-09 -4.36904e-09 1.34134e-09 -2.22167 -0.733487 0.20892 -2.03217e-16 0.0 -3.88251e-19 4.61976 -6.31006 17.0433 -0.0097922 22.1158 0.732524 -17.4179 -19.7485 -37.6094 2.03217e-16 0.0 3.88251e-19 0.189255 -4.01122 -18.4401 0.0657135 19.5714 -0.526357 9.71757 -13.4023 28.2562
